<svg width="1300" height="740" viewBox="0 0 1300 740" fill="none" xmlns="http://www.w3.org/2000/svg">
<g filter="url(#filter0_d_205_2)">
<rect x="5" y="5" width="1280" height="720" rx="20" fill="#191A1F"/>
<path d="M5 665H1285V705C1285 716.046 1276.05 725 1265 725H25C13.9543 725 5 716.046 5 705V665Z" fill="#131217"/>
<path d="M43.08 700L43.066 694.12L40.182 698.964H39.16L36.29 694.246V700H34.162V690.2H36.038L39.706 696.29L43.318 690.2H45.18L45.208 700H43.08ZM53.9871 697.9H49.4371L48.5691 700H46.2451L50.6131 690.2H52.8531L57.2351 700H54.8551L53.9871 697.9ZM53.2731 696.178L51.7191 692.426L50.1651 696.178H53.2731ZM58.2518 690.2H62.7038C63.7678 690.2 64.7058 690.405 65.5178 690.816C66.3392 691.217 66.9738 691.787 67.4218 692.524C67.8792 693.261 68.1078 694.12 68.1078 695.1C68.1078 696.08 67.8792 696.939 67.4218 697.676C66.9738 698.413 66.3392 698.987 65.5178 699.398C64.7058 699.799 63.7678 700 62.7038 700H58.2518V690.2ZM62.5918 698.138C63.5718 698.138 64.3512 697.867 64.9298 697.326C65.5178 696.775 65.8118 696.033 65.8118 695.1C65.8118 694.167 65.5178 693.429 64.9298 692.888C64.3512 692.337 63.5718 692.062 62.5918 692.062H60.5198V698.138H62.5918ZM77.4062 698.18V700H69.8183V690.2H77.2243V692.02H72.0723V694.148H76.6223V695.912H72.0723V698.18H77.4062ZM90.3717 694.904C90.9317 695.081 91.3703 695.38 91.6877 695.8C92.005 696.211 92.1637 696.719 92.1637 697.326C92.1637 698.185 91.8277 698.847 91.1557 699.314C90.493 699.771 89.5223 700 88.2437 700H83.1757V690.2H87.9637C89.1583 690.2 90.073 690.429 90.7077 690.886C91.3517 691.343 91.6737 691.964 91.6737 692.748C91.6737 693.224 91.557 693.649 91.3237 694.022C91.0997 694.395 90.7823 694.689 90.3717 694.904ZM85.4297 691.908V694.218H87.6837C88.2437 694.218 88.6683 694.12 88.9577 693.924C89.247 693.728 89.3917 693.439 89.3917 693.056C89.3917 692.673 89.247 692.389 88.9577 692.202C88.6683 692.006 88.2437 691.908 87.6837 691.908H85.4297ZM88.0757 698.292C88.673 698.292 89.121 698.194 89.4197 697.998C89.7277 697.802 89.8817 697.499 89.8817 697.088C89.8817 696.276 89.2797 695.87 88.0757 695.87H85.4297V698.292H88.0757ZM98.3797 696.528V700H96.1117V696.5L92.3177 690.2H94.7257L97.3437 694.554L99.9617 690.2H102.188L98.3797 696.528ZM110.321 700.168C109.547 700.168 108.795 700.065 108.067 699.86C107.349 699.645 106.77 699.37 106.331 699.034L107.101 697.326C107.521 697.634 108.021 697.881 108.599 698.068C109.178 698.255 109.757 698.348 110.335 698.348C110.979 698.348 111.455 698.255 111.763 698.068C112.071 697.872 112.225 697.615 112.225 697.298C112.225 697.065 112.132 696.873 111.945 696.724C111.768 696.565 111.535 696.439 111.245 696.346C110.965 696.253 110.583 696.15 110.097 696.038C109.351 695.861 108.739 695.683 108.263 695.506C107.787 695.329 107.377 695.044 107.031 694.652C106.695 694.26 106.527 693.737 106.527 693.084C106.527 692.515 106.681 692.001 106.989 691.544C107.297 691.077 107.759 690.709 108.375 690.438C109.001 690.167 109.761 690.032 110.657 690.032C111.283 690.032 111.894 690.107 112.491 690.256C113.089 690.405 113.611 690.62 114.059 690.9L113.359 692.622C112.454 692.109 111.549 691.852 110.643 691.852C110.009 691.852 109.537 691.955 109.229 692.16C108.931 692.365 108.781 692.636 108.781 692.972C108.781 693.308 108.954 693.56 109.299 693.728C109.654 693.887 110.191 694.045 110.909 694.204C111.656 694.381 112.267 694.559 112.743 694.736C113.219 694.913 113.625 695.193 113.961 695.576C114.307 695.959 114.479 696.477 114.479 697.13C114.479 697.69 114.321 698.203 114.003 698.67C113.695 699.127 113.229 699.491 112.603 699.762C111.978 700.033 111.217 700.168 110.321 700.168ZM120.383 700.168C118.983 700.168 117.891 699.781 117.107 699.006C116.333 698.231 115.945 697.125 115.945 695.688V690.2H118.213V695.604C118.213 697.359 118.941 698.236 120.397 698.236C121.107 698.236 121.648 698.026 122.021 697.606C122.395 697.177 122.581 696.509 122.581 695.604V690.2H124.821V695.688C124.821 697.125 124.429 698.231 123.645 699.006C122.871 699.781 121.783 700.168 120.383 700.168ZM128.868 700.168C128.206 700.168 127.594 700.047 127.034 699.804C126.484 699.552 126.031 699.197 125.676 698.74L126.936 697.228C127.468 697.947 128.075 698.306 128.756 698.306C129.68 698.306 130.142 697.765 130.142 696.682V692.02H126.698V690.2H132.396V696.556C132.396 697.76 132.098 698.665 131.5 699.272C130.903 699.869 130.026 700.168 128.868 700.168ZM140.886 697.9H136.336L135.468 700H133.144L137.512 690.2H139.752L144.134 700H141.754L140.886 697.9ZM140.172 696.178L138.618 692.426L137.064 696.178H140.172ZM145.15 690.2H147.418V698.152H152.332V700H145.15V690.2ZM164.018 697.9H159.468L158.6 700H156.276L160.644 690.2H162.884L167.266 700H164.886L164.018 697.9ZM163.304 696.178L161.75 692.426L160.196 696.178H163.304ZM177.271 690.2V700H175.409L170.523 694.05V700H168.283V690.2H170.159L175.031 696.15V690.2H177.271ZM179.59 690.2H184.042C185.106 690.2 186.044 690.405 186.856 690.816C187.677 691.217 188.312 691.787 188.76 692.524C189.217 693.261 189.446 694.12 189.446 695.1C189.446 696.08 189.217 696.939 188.76 697.676C188.312 698.413 187.677 698.987 186.856 699.398C186.044 699.799 185.106 700 184.042 700H179.59V690.2ZM183.93 698.138C184.91 698.138 185.689 697.867 186.268 697.326C186.856 696.775 187.15 696.033 187.15 695.1C187.15 694.167 186.856 693.429 186.268 692.888C185.689 692.337 184.91 692.062 183.93 692.062H181.858V698.138H183.93ZM195.121 690.2H199.573C200.637 690.2 201.575 690.405 202.387 690.816C203.208 691.217 203.843 691.787 204.291 692.524C204.748 693.261 204.977 694.12 204.977 695.1C204.977 696.08 204.748 696.939 204.291 697.676C203.843 698.413 203.208 698.987 202.387 699.398C201.575 699.799 200.637 700 199.573 700H195.121V690.2ZM199.461 698.138C200.441 698.138 201.22 697.867 201.799 697.326C202.387 696.775 202.681 696.033 202.681 695.1C202.681 694.167 202.387 693.429 201.799 692.888C201.22 692.337 200.441 692.062 199.461 692.062H197.389V698.138H199.461ZM206.687 690.2H208.955V700H206.687V690.2ZM220.648 690.2L216.406 700H214.166L209.938 690.2H212.388L215.37 697.2L218.394 690.2H220.648ZM226.02 696.528V700H223.752V696.5L219.958 690.2H222.366L224.984 694.554L227.602 690.2H229.828L226.02 696.528ZM236.63 697.9H232.08L231.212 700H228.888L233.256 690.2H235.496L239.878 700H237.498L236.63 697.9ZM235.916 696.178L234.362 692.426L232.808 696.178H235.916ZM249.882 690.2V700H248.02L243.134 694.05V700H240.894V690.2H242.77L247.642 696.15V690.2H249.882ZM255.421 700.168C254.646 700.168 253.895 700.065 253.167 699.86C252.448 699.645 251.87 699.37 251.431 699.034L252.201 697.326C252.621 697.634 253.12 697.881 253.699 698.068C254.278 698.255 254.856 698.348 255.435 698.348C256.079 698.348 256.555 698.255 256.863 698.068C257.171 697.872 257.325 697.615 257.325 697.298C257.325 697.065 257.232 696.873 257.045 696.724C256.868 696.565 256.634 696.439 256.345 696.346C256.065 696.253 255.682 696.15 255.197 696.038C254.45 695.861 253.839 695.683 253.363 695.506C252.887 695.329 252.476 695.044 252.131 694.652C251.795 694.26 251.627 693.737 251.627 693.084C251.627 692.515 251.781 692.001 252.089 691.544C252.397 691.077 252.859 690.709 253.475 690.438C254.1 690.167 254.861 690.032 255.757 690.032C256.382 690.032 256.994 690.107 257.591 690.256C258.188 690.405 258.711 690.62 259.159 690.9L258.459 692.622C257.554 692.109 256.648 691.852 255.743 691.852C255.108 691.852 254.637 691.955 254.329 692.16C254.03 692.365 253.881 692.636 253.881 692.972C253.881 693.308 254.054 693.56 254.399 693.728C254.754 693.887 255.29 694.045 256.009 694.204C256.756 694.381 257.367 694.559 257.843 694.736C258.319 694.913 258.725 695.193 259.061 695.576C259.406 695.959 259.579 696.477 259.579 697.13C259.579 697.69 259.42 698.203 259.103 698.67C258.795 699.127 258.328 699.491 257.703 699.762C257.078 700.033 256.317 700.168 255.421 700.168ZM270.117 690.2V700H267.849V695.982H263.397V700H261.129V690.2H263.397V694.064H267.849V690.2H270.117Z" fill="#646464"/>
<rect x="826" y="538" width="156" height="38" rx="5" fill="#2D9CFC"/>
<path d="M846.48 556.144H851.4V563.248C850.408 563.936 849.256 564.464 847.944 564.832C846.632 565.2 845.344 565.384 844.08 565.384C842.288 565.384 840.68 565.016 839.256 564.28C837.832 563.528 836.712 562.488 835.896 561.16C835.096 559.816 834.696 558.296 834.696 556.6C834.696 554.904 835.096 553.392 835.896 552.064C836.712 550.72 837.84 549.68 839.28 548.944C840.736 548.192 842.376 547.816 844.2 547.816C845.848 547.816 847.32 548.096 848.616 548.656C849.928 549.2 851.016 550 851.88 551.056L848.256 554.248C847.2 553.016 845.944 552.4 844.488 552.4C843.24 552.4 842.248 552.776 841.512 553.528C840.776 554.28 840.408 555.304 840.408 556.6C840.408 557.864 840.768 558.88 841.488 559.648C842.224 560.416 843.2 560.8 844.416 560.8C845.136 560.8 845.824 560.664 846.48 560.392V556.144ZM867.781 560.728V565H853.813V548.2H867.469V552.472H859.381V554.44H866.485V558.52H859.381V560.728H867.781ZM886.522 548.2V565H881.866L875.482 557.368V565H869.962V548.2H874.618L881.002 555.832V548.2H886.522ZM903.219 560.728V565H889.251V548.2H902.907V552.472H894.819V554.44H901.923V558.52H894.819V560.728H903.219ZM912.599 560.776H911.063V565H905.399V548.2H913.487C915.039 548.2 916.391 548.456 917.543 548.968C918.695 549.48 919.583 550.216 920.207 551.176C920.831 552.136 921.143 553.256 921.143 554.536C921.143 555.736 920.871 556.784 920.327 557.68C919.783 558.576 918.999 559.288 917.975 559.816L921.503 565H915.455L912.599 560.776ZM915.431 554.536C915.431 553.912 915.239 553.432 914.855 553.096C914.471 552.744 913.895 552.568 913.127 552.568H911.063V556.504H913.127C913.895 556.504 914.471 556.336 914.855 556C915.239 555.648 915.431 555.16 915.431 554.536ZM934.73 562.072H928.346L927.218 565H921.458L928.802 548.2H934.37L941.714 565H935.858L934.73 562.072ZM933.17 557.992L931.538 553.768L929.906 557.992H933.17ZM945.422 552.592H940.502V548.2H956.006V552.592H951.086V565H945.422V552.592ZM971.445 560.728V565H957.477V548.2H971.133V552.472H963.045V554.44H970.149V558.52H963.045V560.728H971.445Z" fill="white"/>
<rect x="826" y="224" width="200" height="30" rx="5" fill="#28272E"/>
<path d="M835.464 235.6H838.788C839.66 235.6 840.432 235.78 841.104 236.14C841.784 236.5 842.312 237 842.688 237.64C843.064 238.272 843.252 238.992 843.252 239.8C843.252 240.608 843.064 241.332 842.688 241.972C842.312 242.604 841.784 243.1 841.104 243.46C840.432 243.82 839.66 244 838.788 244H835.464V235.6ZM838.74 243.448C839.516 243.448 840.2 243.296 840.792 242.992C841.384 242.68 841.84 242.248 842.16 241.696C842.48 241.144 842.64 240.512 842.64 239.8C842.64 239.088 842.48 238.456 842.16 237.904C841.84 237.352 841.384 236.924 840.792 236.62C840.2 236.308 839.516 236.152 838.74 236.152H836.076V243.448H838.74ZM848.942 244.06C848.118 244.06 847.374 243.876 846.71 243.508C846.046 243.132 845.522 242.62 845.138 241.972C844.762 241.324 844.574 240.6 844.574 239.8C844.574 239 844.762 238.276 845.138 237.628C845.522 236.98 846.046 236.472 846.71 236.104C847.374 235.728 848.118 235.54 848.942 235.54C849.766 235.54 850.51 235.724 851.174 236.092C851.838 236.46 852.358 236.968 852.734 237.616C853.118 238.264 853.31 238.992 853.31 239.8C853.31 240.608 853.118 241.336 852.734 241.984C852.358 242.632 851.838 243.14 851.174 243.508C850.51 243.876 849.766 244.06 848.942 244.06ZM848.942 243.496C849.646 243.496 850.282 243.336 850.85 243.016C851.418 242.696 851.866 242.256 852.194 241.696C852.522 241.128 852.686 240.496 852.686 239.8C852.686 239.104 852.522 238.476 852.194 237.916C851.866 237.348 851.418 236.904 850.85 236.584C850.282 236.264 849.646 236.104 848.942 236.104C848.238 236.104 847.598 236.264 847.022 236.584C846.454 236.904 846.006 237.348 845.678 237.916C845.35 238.476 845.186 239.104 845.186 239.8C845.186 240.496 845.35 241.128 845.678 241.696C846.006 242.256 846.454 242.696 847.022 243.016C847.598 243.336 848.238 243.496 848.942 243.496ZM858.985 244.06C858.161 244.06 857.417 243.876 856.753 243.508C856.097 243.14 855.577 242.632 855.193 241.984C854.817 241.336 854.629 240.608 854.629 239.8C854.629 238.992 854.817 238.264 855.193 237.616C855.577 236.968 856.097 236.46 856.753 236.092C857.417 235.724 858.161 235.54 858.985 235.54C859.593 235.54 860.153 235.64 860.665 235.84C861.177 236.032 861.613 236.32 861.973 236.704L861.589 237.1C860.917 236.436 860.057 236.104 859.009 236.104C858.305 236.104 857.665 236.264 857.089 236.584C856.513 236.904 856.061 237.348 855.733 237.916C855.405 238.476 855.241 239.104 855.241 239.8C855.241 240.496 855.405 241.128 855.733 241.696C856.061 242.256 856.513 242.696 857.089 243.016C857.665 243.336 858.305 243.496 859.009 243.496C860.049 243.496 860.909 243.16 861.589 242.488L861.973 242.884C861.613 243.268 861.173 243.56 860.653 243.76C860.141 243.96 859.585 244.06 858.985 244.06ZM867.299 244.06C866.235 244.06 865.407 243.752 864.815 243.136C864.231 242.52 863.939 241.62 863.939 240.436V235.6H864.551V240.412C864.551 241.444 864.787 242.216 865.259 242.728C865.731 243.24 866.415 243.496 867.311 243.496C868.199 243.496 868.879 243.24 869.351 242.728C869.823 242.216 870.059 241.444 870.059 240.412V235.6H870.671V240.436C870.671 241.62 870.375 242.52 869.783 243.136C869.191 243.752 868.363 244.06 867.299 244.06ZM881.471 244L881.459 236.812L877.943 242.884H877.643L874.127 236.836V244H873.527V235.6H874.043L877.799 242.092L881.555 235.6H882.059L882.071 244H881.471ZM890.795 243.448V244H884.999V235.6H890.615V236.152H885.611V239.464H890.087V240.004H885.611V243.448H890.795ZM899.867 235.6V244H899.363L893.639 236.704V244H893.027V235.6H893.543L899.255 242.896V235.6H899.867ZM904.408 236.152H901.384V235.6H908.044V236.152H905.02V244H904.408V236.152ZM919.484 235.6V244H918.872V240.004H913.256V244H912.644V235.6H913.256V239.464H918.872V235.6H919.484ZM928.213 243.448V244H922.417V235.6H928.033V236.152H923.029V239.464H927.505V240.004H923.029V243.448H928.213ZM935.64 241.636H930.768L929.7 244H929.04L932.904 235.6H933.516L937.38 244H936.72L935.64 241.636ZM935.412 241.12L933.204 236.272L931.008 241.12H935.412ZM938.905 235.6H942.229C943.101 235.6 943.873 235.78 944.545 236.14C945.225 236.5 945.753 237 946.129 237.64C946.505 238.272 946.693 238.992 946.693 239.8C946.693 240.608 946.505 241.332 946.129 241.972C945.753 242.604 945.225 243.1 944.545 243.46C943.873 243.82 943.101 244 942.229 244H938.905V235.6ZM942.181 243.448C942.957 243.448 943.641 243.296 944.233 242.992C944.825 242.68 945.281 242.248 945.601 241.696C945.921 241.144 946.081 240.512 946.081 239.8C946.081 239.088 945.921 238.456 945.601 237.904C945.281 237.352 944.825 236.924 944.233 236.62C943.641 236.308 942.957 236.152 942.181 236.152H939.517V243.448H942.181ZM948.819 235.6H949.431V244H948.819V235.6ZM959.199 235.6V244H958.695L952.971 236.704V244H952.359V235.6H952.875L958.587 242.896V235.6H959.199ZM968.132 239.836H968.72V242.98C968.352 243.332 967.904 243.6 967.376 243.784C966.856 243.968 966.304 244.06 965.72 244.06C964.888 244.06 964.136 243.876 963.464 243.508C962.8 243.14 962.276 242.632 961.892 241.984C961.516 241.336 961.328 240.608 961.328 239.8C961.328 238.992 961.516 238.264 961.892 237.616C962.276 236.968 962.8 236.46 963.464 236.092C964.136 235.724 964.892 235.54 965.732 235.54C966.348 235.54 966.912 235.64 967.424 235.84C967.944 236.032 968.388 236.316 968.756 236.692L968.372 237.1C968.02 236.748 967.624 236.496 967.184 236.344C966.752 236.184 966.272 236.104 965.744 236.104C965.024 236.104 964.372 236.264 963.788 236.584C963.212 236.904 962.76 237.348 962.432 237.916C962.104 238.476 961.94 239.104 961.94 239.8C961.94 240.488 962.104 241.116 962.432 241.684C962.768 242.244 963.224 242.688 963.8 243.016C964.376 243.336 965.024 243.496 965.744 243.496C966.704 243.496 967.5 243.24 968.132 242.728V239.836Z" fill="#646464"/>
<rect x="998" y="189" width="15" height="15" rx="2" fill="#28272E"/>
<rect x="1000.5" y="191.5" width="10" height="10" rx="1" fill="#48C295"/>
<path d="M843.4 188.2V205H839.512V198.112H831.88V205H827.992V188.2H831.88V194.824H839.512V188.2H843.4ZM860.383 201.88V205H847.375V188.2H860.071V191.32H851.239V194.968H859.039V197.992H851.239V201.88H860.383ZM874.54 201.4H866.74L865.252 205H861.268L868.756 188.2H872.596L880.108 205H876.028L874.54 201.4ZM873.316 198.448L870.652 192.016L867.988 198.448H873.316ZM881.851 188.2H889.483C891.307 188.2 892.915 188.552 894.307 189.256C895.715 189.944 896.803 190.92 897.571 192.184C898.355 193.448 898.747 194.92 898.747 196.6C898.747 198.28 898.355 199.752 897.571 201.016C896.803 202.28 895.715 203.264 894.307 203.968C892.915 204.656 891.307 205 889.483 205H881.851V188.2ZM889.291 201.808C890.971 201.808 892.307 201.344 893.299 200.416C894.307 199.472 894.811 198.2 894.811 196.6C894.811 195 894.307 193.736 893.299 192.808C892.307 191.864 890.971 191.392 889.291 191.392H885.739V201.808H889.291ZM901.68 188.2H905.568V205H901.68V188.2ZM924.963 188.2V205H921.771L913.395 194.8V205H909.555V188.2H912.771L921.122 198.4V188.2H924.963ZM940.289 196.336H943.841V203.152C942.929 203.84 941.873 204.368 940.673 204.736C939.473 205.104 938.265 205.288 937.049 205.288C935.305 205.288 933.737 204.92 932.345 204.184C930.953 203.432 929.857 202.4 929.057 201.088C928.273 199.76 927.881 198.264 927.881 196.6C927.881 194.936 928.273 193.448 929.057 192.136C929.857 190.808 930.961 189.776 932.369 189.04C933.777 188.288 935.361 187.912 937.121 187.912C938.593 187.912 939.929 188.16 941.129 188.656C942.329 189.152 943.337 189.872 944.153 190.816L941.657 193.12C940.457 191.856 939.009 191.224 937.313 191.224C936.241 191.224 935.289 191.448 934.457 191.896C933.625 192.344 932.977 192.976 932.513 193.792C932.049 194.608 931.817 195.544 931.817 196.6C931.817 197.64 932.049 198.568 932.513 199.384C932.977 200.2 933.617 200.84 934.433 201.304C935.265 201.752 936.209 201.976 937.265 201.976C938.385 201.976 939.393 201.736 940.289 201.256V196.336Z" fill="white"/>
<rect x="826" y="321" width="200" height="30" rx="5" fill="#28272E"/>
<path d="M837.672 341.06C837.056 341.06 836.468 340.956 835.908 340.748C835.356 340.532 834.924 340.256 834.612 339.92L834.888 339.464C835.184 339.776 835.58 340.032 836.076 340.232C836.58 340.424 837.108 340.52 837.66 340.52C838.46 340.52 839.064 340.368 839.472 340.064C839.88 339.76 840.084 339.364 840.084 338.876C840.084 338.5 839.976 338.2 839.76 337.976C839.544 337.752 839.276 337.58 838.956 337.46C838.636 337.34 838.204 337.216 837.66 337.088C837.044 336.936 836.548 336.788 836.172 336.644C835.804 336.5 835.488 336.28 835.224 335.984C834.968 335.68 834.84 335.276 834.84 334.772C834.84 334.364 834.948 333.992 835.164 333.656C835.38 333.312 835.708 333.04 836.148 332.84C836.596 332.64 837.152 332.54 837.816 332.54C838.28 332.54 838.736 332.608 839.184 332.744C839.632 332.88 840.02 333.064 840.348 333.296L840.12 333.788C839.784 333.556 839.412 333.38 839.004 333.26C838.604 333.14 838.208 333.08 837.816 333.08C837.04 333.08 836.452 333.236 836.052 333.548C835.652 333.86 835.452 334.264 835.452 334.76C835.452 335.136 835.56 335.436 835.776 335.66C835.992 335.884 836.26 336.056 836.58 336.176C836.9 336.296 837.336 336.424 837.888 336.56C838.504 336.712 838.996 336.86 839.364 337.004C839.732 337.148 840.044 337.368 840.3 337.664C840.564 337.952 840.696 338.344 840.696 338.84C840.696 339.248 840.584 339.62 840.36 339.956C840.144 340.292 839.808 340.56 839.352 340.76C838.896 340.96 838.336 341.06 837.672 341.06ZM848.573 340.448V341H842.777V332.6H848.393V333.152H843.389V336.464H847.865V337.004H843.389V340.448H848.573ZM853.816 332.6C854.872 332.6 855.7 332.852 856.3 333.356C856.9 333.852 857.2 334.544 857.2 335.432C857.2 336.312 856.9 337.004 856.3 337.508C855.7 338.004 854.872 338.252 853.816 338.252H851.416V341H850.804V332.6H853.816ZM853.816 337.7C854.712 337.7 855.396 337.504 855.868 337.112C856.34 336.72 856.576 336.16 856.576 335.432C856.576 334.704 856.34 334.144 855.868 333.752C855.396 333.352 854.712 333.152 853.816 333.152H851.416V337.7H853.816ZM864.039 338.636H859.167L858.099 341H857.439L861.303 332.6H861.915L865.779 341H865.119L864.039 338.636ZM863.811 338.12L861.603 333.272L859.407 338.12H863.811ZM873.136 341L871.132 338.192C870.836 338.232 870.564 338.252 870.316 338.252H867.916V341H867.304V332.6H870.316C871.372 332.6 872.2 332.852 872.8 333.356C873.4 333.852 873.7 334.544 873.7 335.432C873.7 336.096 873.528 336.656 873.184 337.112C872.848 337.56 872.364 337.876 871.732 338.06L873.832 341H873.136ZM870.316 337.712C871.212 337.712 871.896 337.516 872.368 337.124C872.84 336.724 873.076 336.16 873.076 335.432C873.076 334.704 872.84 334.144 872.368 333.752C871.896 333.352 871.212 333.152 870.316 333.152H867.916V337.712H870.316ZM881.137 338.636H876.265L875.197 341H874.537L878.401 332.6H879.013L882.877 341H882.217L881.137 338.636ZM880.909 338.12L878.701 333.272L876.505 338.12H880.909ZM885.588 333.152H882.564V332.6H889.224V333.152H886.2V341H885.588V333.152ZM896.537 340.448V341H890.741V332.6H896.357V333.152H891.353V336.464H895.829V337.004H891.353V340.448H896.537ZM908.691 332.6V341H908.187L902.463 333.704V341H901.851V332.6H902.367L908.079 339.896V332.6H908.691ZM916.82 338.636H911.948L910.88 341H910.22L914.084 332.6H914.696L918.56 341H917.9L916.82 338.636ZM916.592 338.12L914.384 333.272L912.188 338.12H916.592ZM928.029 341L928.017 333.812L924.501 339.884H924.201L920.685 333.836V341H920.085V332.6H920.601L924.357 339.092L928.113 332.6H928.617L928.629 341H928.029ZM937.354 340.448V341H931.558V332.6H937.174V333.152H932.17V336.464H936.646V337.004H932.17V340.448H937.354ZM941.793 341.06C941.177 341.06 940.589 340.956 940.029 340.748C939.477 340.532 939.045 340.256 938.733 339.92L939.009 339.464C939.305 339.776 939.701 340.032 940.197 340.232C940.701 340.424 941.229 340.52 941.781 340.52C942.581 340.52 943.185 340.368 943.593 340.064C944.001 339.76 944.205 339.364 944.205 338.876C944.205 338.5 944.097 338.2 943.881 337.976C943.665 337.752 943.397 337.58 943.077 337.46C942.757 337.34 942.325 337.216 941.781 337.088C941.165 336.936 940.669 336.788 940.293 336.644C939.925 336.5 939.609 336.28 939.345 335.984C939.089 335.68 938.961 335.276 938.961 334.772C938.961 334.364 939.069 333.992 939.285 333.656C939.501 333.312 939.829 333.04 940.269 332.84C940.717 332.64 941.273 332.54 941.937 332.54C942.401 332.54 942.857 332.608 943.305 332.744C943.753 332.88 944.141 333.064 944.469 333.296L944.241 333.788C943.905 333.556 943.533 333.38 943.125 333.26C942.725 333.14 942.329 333.08 941.937 333.08C941.161 333.08 940.573 333.236 940.173 333.548C939.773 333.86 939.573 334.264 939.573 334.76C939.573 335.136 939.681 335.436 939.897 335.66C940.113 335.884 940.381 336.056 940.701 336.176C941.021 336.296 941.457 336.424 942.009 336.56C942.625 336.712 943.117 336.86 943.485 337.004C943.853 337.148 944.165 337.368 944.421 337.664C944.685 337.952 944.817 338.344 944.817 338.84C944.817 339.248 944.705 339.62 944.481 339.956C944.265 340.292 943.929 340.56 943.473 340.76C943.017 340.96 942.457 341.06 941.793 341.06ZM961.212 332.6L958.368 341H957.72L955.116 333.464L952.5 341H951.852L948.996 332.6H949.644L952.2 340.16L954.828 332.6H955.416L958.032 340.172L960.612 332.6H961.212ZM962.976 332.6H963.588V341H962.976V332.6ZM968.123 333.152H965.099V332.6H971.759V333.152H968.735V341H968.123V333.152ZM980.117 332.6V341H979.505V337.004H973.889V341H973.277V332.6H973.889V336.464H979.505V332.6H980.117ZM985.868 340.028C986.012 340.028 986.132 340.08 986.228 340.184C986.324 340.28 986.372 340.396 986.372 340.532C986.372 340.612 986.36 340.696 986.336 340.784C986.32 340.872 986.296 340.972 986.264 341.084L985.796 342.716H985.364L985.76 341.024C985.64 340.992 985.544 340.936 985.472 340.856C985.4 340.768 985.364 340.66 985.364 340.532C985.364 340.388 985.412 340.268 985.508 340.172C985.604 340.076 985.724 340.028 985.868 340.028Z" fill="#646464"/>
<rect x="1000" y="286" width="15" height="15" rx="2" fill="#28272E"/>
<rect x="1002.5" y="288.5" width="10" height="10" rx="1" fill="#48C295"/>
<path d="M843.4 285.2V302H840.208L831.832 291.8V302H827.992V285.2H831.208L839.56 295.4V285.2H843.4ZM858.439 298.4H850.639L849.151 302H845.167L852.655 285.2H856.495L864.007 302H859.927L858.439 298.4ZM857.215 295.448L854.551 289.016L851.887 295.448H857.215ZM881.038 302L881.014 291.92L876.07 300.224H874.318L869.398 292.136V302H865.75V285.2H868.966L875.254 295.64L881.446 285.2H884.638L884.686 302H881.038ZM901.68 298.88V302H888.672V285.2H901.368V288.32H892.536V291.968H900.336V294.992H892.536V298.88H901.68Z" fill="white"/>
<rect x="826" y="418" width="200" height="30" rx="5" fill="#28272E"/>
<path d="M835.464 429.6H838.788C839.66 429.6 840.432 429.78 841.104 430.14C841.784 430.5 842.312 431 842.688 431.64C843.064 432.272 843.252 432.992 843.252 433.8C843.252 434.608 843.064 435.332 842.688 435.972C842.312 436.604 841.784 437.1 841.104 437.46C840.432 437.82 839.66 438 838.788 438H835.464V429.6ZM838.74 437.448C839.516 437.448 840.2 437.296 840.792 436.992C841.384 436.68 841.84 436.248 842.16 435.696C842.48 435.144 842.64 434.512 842.64 433.8C842.64 433.088 842.48 432.456 842.16 431.904C841.84 431.352 841.384 430.924 840.792 430.62C840.2 430.308 839.516 430.152 838.74 430.152H836.076V437.448H838.74ZM851.174 437.448V438H845.378V429.6H850.994V430.152H845.99V433.464H850.466V434.004H845.99V437.448H851.174ZM854.017 430.152V433.74H858.493V434.292H854.017V438H853.405V429.6H859.021V430.152H854.017ZM865.762 435.636H860.89L859.822 438H859.162L863.026 429.6H863.638L867.502 438H866.842L865.762 435.636ZM865.534 435.12L863.326 430.272L861.13 435.12H865.534ZM872.139 438.06C871.075 438.06 870.247 437.752 869.655 437.136C869.071 436.52 868.779 435.62 868.779 434.436V429.6H869.391V434.412C869.391 435.444 869.627 436.216 870.099 436.728C870.571 437.24 871.255 437.496 872.151 437.496C873.039 437.496 873.719 437.24 874.191 436.728C874.663 436.216 874.899 435.444 874.899 434.412V429.6H875.511V434.436C875.511 435.62 875.215 436.52 874.623 437.136C874.031 437.752 873.203 438.06 872.139 438.06ZM878.366 429.6H878.978V437.448H883.814V438H878.366V429.6ZM886.209 430.152H883.185V429.6H889.845V430.152H886.821V438H886.209V430.152Z" fill="white"/>
<path d="M998 418H1021C1023.76 418 1026 420.239 1026 423V443C1026 445.761 1023.76 448 1021 448H998V418Z" fill="#403E46"/>
<path d="M1012.57 437.571C1012.64 437.495 1012.7 437.412 1012.76 437.326L1018.57 431.512C1019.14 430.944 1019.14 430.024 1018.57 429.457C1018.01 428.89 1017.09 428.889 1016.52 429.457L1011.51 434.464L1006.48 429.431C1005.91 428.864 1004.99 428.864 1004.43 429.431C1004.14 429.715 1004 430.087 1004 430.458C1004 430.83 1004.14 431.202 1004.43 431.485L1010.26 437.325C1010.32 437.412 1010.38 437.495 1010.46 437.571C1010.75 437.861 1011.13 438.001 1011.51 437.994C1011.89 438.001 1012.28 437.861 1012.57 437.571Z" fill="white"/>
<path d="M831.472 385.368H826.096V382.2H840.736V385.368H835.36V399H831.472V385.368ZM858.236 382.2V399H854.348V392.112H846.716V399H842.828V382.2H846.716V388.824H854.348V382.2H858.236ZM875.219 395.88V399H862.211V382.2H874.907V385.32H866.075V388.968H873.875V391.992H866.075V395.88H875.219ZM893.6 399L893.576 388.92L888.632 397.224H886.88L881.96 389.136V399H878.312V382.2H881.528L887.816 392.64L894.008 382.2H897.2L897.248 399H893.6ZM914.242 395.88V399H901.234V382.2H913.93V385.32H905.098V388.968H912.898V391.992H905.098V395.88H914.242Z" fill="white"/>
<rect x="143" y="165" width="655" height="430" rx="10" fill="#131217"/>
<path d="M172.582 194.782V196H165.47V186.2H172.386V187.418H166.87V190.428H171.784V191.618H166.87V194.782H172.582ZM183.277 186.2V196H182.129L176.249 188.692V196H174.849V186.2H175.997L181.877 193.508V186.2H183.277ZM188.156 187.418H184.796V186.2H192.902V187.418H189.542V196H188.156V187.418ZM201.539 194.782V196H194.427V186.2H201.343V187.418H195.827V190.428H200.741V191.618H195.827V194.782H201.539ZM210.358 196L208.244 192.99C207.983 193.009 207.777 193.018 207.628 193.018H205.206V196H203.806V186.2H207.628C208.897 186.2 209.896 186.503 210.624 187.11C211.352 187.717 211.716 188.552 211.716 189.616C211.716 190.372 211.529 191.016 211.156 191.548C210.783 192.08 210.251 192.467 209.56 192.71L211.884 196H210.358ZM207.586 191.828C208.473 191.828 209.149 191.637 209.616 191.254C210.083 190.871 210.316 190.325 210.316 189.616C210.316 188.907 210.083 188.365 209.616 187.992C209.149 187.609 208.473 187.418 207.586 187.418H205.206V191.828H207.586ZM220.594 196.112C219.856 196.112 219.142 196 218.452 195.776C217.77 195.543 217.234 195.244 216.842 194.88L217.36 193.788C217.733 194.124 218.209 194.399 218.788 194.614C219.376 194.819 219.978 194.922 220.594 194.922C221.406 194.922 222.012 194.787 222.414 194.516C222.815 194.236 223.016 193.867 223.016 193.41C223.016 193.074 222.904 192.803 222.68 192.598C222.465 192.383 222.194 192.22 221.868 192.108C221.55 191.996 221.098 191.87 220.51 191.73C219.772 191.553 219.175 191.375 218.718 191.198C218.27 191.021 217.882 190.75 217.556 190.386C217.238 190.013 217.08 189.513 217.08 188.888C217.08 188.365 217.215 187.894 217.486 187.474C217.766 187.054 218.186 186.718 218.746 186.466C219.306 186.214 220.001 186.088 220.832 186.088C221.41 186.088 221.98 186.163 222.54 186.312C223.1 186.461 223.58 186.676 223.982 186.956L223.52 188.076C223.109 187.815 222.67 187.619 222.204 187.488C221.737 187.348 221.28 187.278 220.832 187.278C220.038 187.278 219.441 187.423 219.04 187.712C218.648 188.001 218.452 188.375 218.452 188.832C218.452 189.168 218.564 189.443 218.788 189.658C219.012 189.863 219.287 190.027 219.614 190.148C219.95 190.26 220.402 190.381 220.972 190.512C221.709 190.689 222.302 190.867 222.75 191.044C223.198 191.221 223.58 191.492 223.898 191.856C224.224 192.22 224.388 192.71 224.388 193.326C224.388 193.839 224.248 194.311 223.968 194.74C223.688 195.16 223.263 195.496 222.694 195.748C222.124 195.991 221.424 196.112 220.594 196.112ZM236.527 196.896C236.21 197.269 235.841 197.554 235.421 197.75C235.001 197.946 234.548 198.044 234.063 198.044C233.447 198.044 232.868 197.895 232.327 197.596C231.795 197.307 231.184 196.807 230.493 196.098C229.569 196.051 228.734 195.804 227.987 195.356C227.25 194.908 226.671 194.315 226.251 193.578C225.84 192.831 225.635 192.005 225.635 191.1C225.635 190.157 225.859 189.303 226.307 188.538C226.764 187.773 227.39 187.175 228.183 186.746C228.976 186.307 229.868 186.088 230.857 186.088C231.837 186.088 232.724 186.307 233.517 186.746C234.31 187.175 234.931 187.773 235.379 188.538C235.827 189.294 236.051 190.148 236.051 191.1C236.051 191.903 235.888 192.64 235.561 193.312C235.244 193.984 234.791 194.549 234.203 195.006C233.624 195.463 232.957 195.781 232.201 195.958C232.528 196.303 232.84 196.551 233.139 196.7C233.447 196.859 233.76 196.938 234.077 196.938C234.768 196.938 235.365 196.658 235.869 196.098L236.527 196.896ZM227.035 191.1C227.035 191.809 227.198 192.453 227.525 193.032C227.861 193.601 228.318 194.049 228.897 194.376C229.485 194.703 230.138 194.866 230.857 194.866C231.566 194.866 232.21 194.703 232.789 194.376C233.368 194.049 233.82 193.601 234.147 193.032C234.483 192.453 234.651 191.809 234.651 191.1C234.651 190.391 234.483 189.751 234.147 189.182C233.82 188.603 233.368 188.151 232.789 187.824C232.21 187.497 231.566 187.334 230.857 187.334C230.138 187.334 229.485 187.497 228.897 187.824C228.318 188.151 227.861 188.603 227.525 189.182C227.198 189.751 227.035 190.391 227.035 191.1ZM238.191 186.2H239.591V194.782H244.897V196H238.191V186.2ZM260.357 196.896C260.04 197.269 259.671 197.554 259.251 197.75C258.831 197.946 258.378 198.044 257.893 198.044C257.277 198.044 256.698 197.895 256.157 197.596C255.625 197.307 255.014 196.807 254.323 196.098C253.399 196.051 252.564 195.804 251.817 195.356C251.08 194.908 250.501 194.315 250.081 193.578C249.67 192.831 249.465 192.005 249.465 191.1C249.465 190.157 249.689 189.303 250.137 188.538C250.594 187.773 251.22 187.175 252.013 186.746C252.806 186.307 253.698 186.088 254.687 186.088C255.667 186.088 256.554 186.307 257.347 186.746C258.14 187.175 258.761 187.773 259.209 188.538C259.657 189.294 259.881 190.148 259.881 191.1C259.881 191.903 259.718 192.64 259.391 193.312C259.074 193.984 258.621 194.549 258.033 195.006C257.454 195.463 256.787 195.781 256.031 195.958C256.358 196.303 256.67 196.551 256.969 196.7C257.277 196.859 257.59 196.938 257.907 196.938C258.598 196.938 259.195 196.658 259.699 196.098L260.357 196.896ZM250.865 191.1C250.865 191.809 251.028 192.453 251.355 193.032C251.691 193.601 252.148 194.049 252.727 194.376C253.315 194.703 253.968 194.866 254.687 194.866C255.396 194.866 256.04 194.703 256.619 194.376C257.198 194.049 257.65 193.601 257.977 193.032C258.313 192.453 258.481 191.809 258.481 191.1C258.481 190.391 258.313 189.751 257.977 189.182C257.65 188.603 257.198 188.151 256.619 187.824C256.04 187.497 255.396 187.334 254.687 187.334C253.968 187.334 253.315 187.497 252.727 187.824C252.148 188.151 251.691 188.603 251.355 189.182C251.028 189.751 250.865 190.391 250.865 191.1ZM266.081 196.112C264.774 196.112 263.757 195.739 263.029 194.992C262.301 194.245 261.937 193.172 261.937 191.772V186.2H263.337V191.716C263.337 193.816 264.256 194.866 266.095 194.866C266.991 194.866 267.677 194.609 268.153 194.096C268.629 193.573 268.867 192.78 268.867 191.716V186.2H270.225V191.772C270.225 193.181 269.861 194.259 269.133 195.006C268.405 195.743 267.387 196.112 266.081 196.112ZM280.207 194.782V196H273.095V186.2H280.011V187.418H274.495V190.428H279.409V191.618H274.495V194.782H280.207ZM289.026 196L286.912 192.99C286.651 193.009 286.445 193.018 286.296 193.018H283.874V196H282.474V186.2H286.296C287.565 186.2 288.564 186.503 289.292 187.11C290.02 187.717 290.384 188.552 290.384 189.616C290.384 190.372 290.197 191.016 289.824 191.548C289.451 192.08 288.919 192.467 288.228 192.71L290.552 196H289.026ZM286.254 191.828C287.141 191.828 287.817 191.637 288.284 191.254C288.751 190.871 288.984 190.325 288.984 189.616C288.984 188.907 288.751 188.365 288.284 187.992C287.817 187.609 287.141 187.418 286.254 187.418H283.874V191.828H286.254ZM296.261 192.612V196H294.875V192.584L290.983 186.2H292.481L295.617 191.366L298.767 186.2H300.153L296.261 192.612ZM313.761 186.2V196H312.361V191.632H306.733V196H305.333V186.2H306.733V190.414H312.361V186.2H313.761ZM323.807 194.782V196H316.695V186.2H323.611V187.418H318.095V190.428H323.009V191.618H318.095V194.782H323.807ZM332.626 196L330.512 192.99C330.25 193.009 330.045 193.018 329.896 193.018H327.474V196H326.074V186.2H329.896C331.165 186.2 332.164 186.503 332.892 187.11C333.62 187.717 333.984 188.552 333.984 189.616C333.984 190.372 333.797 191.016 333.424 191.548C333.05 192.08 332.518 192.467 331.828 192.71L334.152 196H332.626ZM329.854 191.828C330.74 191.828 331.417 191.637 331.884 191.254C332.35 190.871 332.584 190.325 332.584 189.616C332.584 188.907 332.35 188.365 331.884 187.992C331.417 187.609 330.74 187.418 329.854 187.418H327.474V191.828H329.854ZM343.357 194.782V196H336.245V186.2H343.161V187.418H337.645V190.428H342.559V191.618H337.645V194.782H343.357Z" fill="#646464"/>
<rect x="55" y="165" width="60" height="430" rx="10" fill="#131217"/>
<g clip-path="url(#clip0_205_2)">
<path d="M93.0786 376.111L91.8152 375.897C91.6836 375.472 91.5144 375.062 91.3076 374.671L92.0521 373.63C92.368 373.186 92.3191 372.581 91.9318 372.197L90.8113 371.077C90.6007 370.866 90.3224 370.749 90.0254 370.749C89.7923 370.749 89.5704 370.821 89.3824 370.956L88.3371 371.701C87.931 371.486 87.5061 371.31 87.0662 371.178L86.8556 369.93C86.7653 369.392 86.3028 369.001 85.7576 369.001H84.1746C83.6294 369.001 83.1669 369.392 83.0766 369.93L82.8585 371.208C82.4374 371.34 82.0275 371.513 81.6365 371.723L80.6024 370.979C80.4144 370.843 80.1888 370.772 79.9557 370.772C79.6586 370.772 79.3766 370.889 79.1698 371.099L78.0455 372.22C77.662 372.603 77.6093 373.209 77.9252 373.652L78.6772 374.709C78.4704 375.104 78.305 375.514 78.1771 375.938L76.9288 376.149C76.3911 376.239 76 376.702 76 377.247V378.83C76 379.375 76.3911 379.838 76.9288 379.928L78.2072 380.146C78.3388 380.567 78.5118 380.977 78.7224 381.368L77.9816 382.398C77.6658 382.842 77.7146 383.448 78.1019 383.831L79.2225 384.952C79.433 385.162 79.7113 385.279 80.0083 385.279C80.2415 385.279 80.4633 385.207 80.6513 385.072L81.7079 384.32C82.0877 384.519 82.4863 384.681 82.8961 384.809L83.1067 386.072C83.1969 386.61 83.6594 387.001 84.2047 387.001H85.7915C86.3367 387.001 86.7992 386.61 86.8894 386.072L87.1038 384.809C87.5287 384.677 87.9385 384.508 88.3296 384.301L89.3711 385.046C89.5591 385.181 89.7847 385.252 90.0179 385.252C90.3149 385.252 90.5932 385.136 90.8038 384.925L91.9243 383.805C92.3078 383.421 92.3605 382.816 92.0446 382.372L91.3001 381.327C91.5069 380.932 91.6799 380.522 91.8077 380.101L93.0711 379.89C93.6088 379.8 93.9999 379.338 93.9999 378.792V377.209C94.0074 376.664 93.6164 376.202 93.0786 376.111ZM92.9922 378.792C92.9922 378.841 92.9583 378.883 92.9094 378.89L91.3302 379.153C91.1309 379.187 90.973 379.334 90.9241 379.526C90.7812 380.078 90.5631 380.609 90.2698 381.101C90.1683 381.274 90.1758 381.488 90.2924 381.654L91.2211 382.962C91.2474 383 91.2437 383.056 91.2098 383.09L90.0893 384.211C90.063 384.237 90.0367 384.241 90.0179 384.241C89.9953 384.241 89.9765 384.233 89.9615 384.222L88.6567 383.293C88.495 383.177 88.2769 383.169 88.104 383.271C87.6114 383.564 87.0812 383.782 86.5284 383.925C86.3329 383.974 86.1863 384.136 86.1562 384.331L85.8892 385.91C85.8817 385.959 85.8403 385.993 85.7915 385.993H84.2084C84.1595 385.993 84.1182 385.959 84.1107 385.91L83.8475 384.331C83.8136 384.132 83.667 383.974 83.4752 383.925C82.9375 383.786 82.4186 383.572 81.9335 383.293C81.8546 383.248 81.7643 383.226 81.6778 383.226C81.5763 383.226 81.471 383.256 81.3845 383.32L80.0685 384.256C80.0497 384.267 80.0309 384.275 80.0121 384.275C79.9971 384.275 79.967 384.271 79.9406 384.245L78.8201 383.124C78.7863 383.09 78.7825 383.038 78.8088 382.996L79.7338 381.699C79.8504 381.534 79.8579 381.316 79.7564 381.143C79.4631 380.654 79.2375 380.124 79.0946 379.571C79.042 379.379 78.884 379.232 78.6885 379.199L77.098 378.928C77.0491 378.92 77.0152 378.879 77.0152 378.83V377.247C77.0152 377.198 77.0491 377.157 77.098 377.149L78.666 376.886C78.8652 376.852 79.0269 376.706 79.0758 376.51C79.2149 375.957 79.4293 375.423 79.7188 374.931C79.8203 374.758 79.809 374.543 79.6925 374.382L78.7562 373.066C78.7299 373.028 78.7336 372.972 78.7675 372.938L79.888 371.817C79.9143 371.791 79.9406 371.787 79.9594 371.787C79.982 371.787 80.0008 371.795 80.0159 371.806L81.3131 372.731C81.4786 372.848 81.6966 372.855 81.8696 372.754C82.3584 372.46 82.8886 372.235 83.4414 372.092C83.6331 372.039 83.7798 371.881 83.8136 371.686L84.0843 370.095C84.0919 370.046 84.1332 370.012 84.1821 370.012H85.7651C85.814 370.012 85.8554 370.046 85.8629 370.095L86.1261 371.663C86.16 371.862 86.3066 372.024 86.5021 372.073C87.0699 372.216 87.6114 372.438 88.1152 372.735C88.2882 372.836 88.5025 372.829 88.668 372.712L89.9652 371.78C89.984 371.768 90.0028 371.761 90.0216 371.761C90.0367 371.761 90.0668 371.765 90.0931 371.791L91.2136 372.912C91.2474 372.945 91.2512 372.998 91.2249 373.039L90.2961 374.344C90.1796 374.506 90.172 374.724 90.2736 374.897C90.5669 375.39 90.7849 375.92 90.9278 376.472C90.9767 376.668 91.1384 376.815 91.3339 376.845L92.9132 377.112C92.9621 377.119 92.9959 377.161 92.9959 377.209V378.792H92.9922Z" fill="#646464"/>
<path d="M85.0019 374.114C82.8586 374.114 81.1176 375.855 81.1176 377.998C81.1176 380.141 82.8586 381.882 85.0019 381.882C87.1451 381.882 88.8861 380.141 88.8861 377.998C88.8861 375.855 87.1451 374.114 85.0019 374.114ZM85.0019 380.867C83.4188 380.867 82.1329 379.581 82.1329 377.998C82.1329 376.415 83.4188 375.129 85.0019 375.129C86.5849 375.129 87.8709 376.415 87.8709 377.998C87.8709 379.581 86.5849 380.867 85.0019 380.867Z" fill="#646464"/>
</g>
<g clip-path="url(#clip1_205_2)">
<path d="M79.6172 338.963C80.7902 337.289 82.7328 336.251 84.8111 336.251C88.3027 336.251 91.1434 339.091 91.1434 342.583H92.3942C92.3942 338.402 88.9924 335 84.8111 335C83.3502 335 81.9317 335.416 80.7088 336.204C79.934 336.704 79.2617 337.336 78.7187 338.068L77.0868 336.444V341.171H81.8362L79.6172 338.963Z" fill="#646464"/>
<path d="M92.9132 344.829H88.1638L90.3828 347.037C89.2098 348.711 87.2672 349.749 85.1889 349.749C81.6973 349.749 78.8567 346.909 78.8567 343.417H77.6058C77.6058 347.598 81.0076 351 85.1889 351C86.6498 351 88.0684 350.584 89.2912 349.796C90.0661 349.296 90.7383 348.664 91.2813 347.932L92.9132 349.556V344.829H92.9132Z" fill="#646464"/>
</g>
<line x1="65.5" y1="289" x2="65.5" y2="319" stroke="#2D9CFC"/>
<g clip-path="url(#clip2_205_2)">
<path d="M96.015 310.819C94.6558 310.785 93.6024 310.92 92.7189 311.291C92.464 311.392 92.0562 311.392 92.0222 311.713C92.1582 311.847 92.1752 312.067 92.2941 312.252C92.4981 312.589 92.8548 313.044 93.1776 313.28C93.5344 313.55 93.8912 313.82 94.2649 314.056C94.9276 314.461 95.6752 314.697 96.3208 315.101C96.6947 315.337 97.0683 315.641 97.4421 315.894C97.6291 316.028 97.7479 316.248 97.9859 316.332V316.281C97.8669 316.13 97.8329 315.91 97.7141 315.742C97.5443 315.573 97.3742 315.421 97.2043 315.253C96.7116 314.595 96.1 314.022 95.4373 313.55C94.8937 313.179 93.7043 312.674 93.4834 312.05C93.4834 312.05 93.4664 312.033 93.4494 312.016C93.8232 311.982 94.2649 311.847 94.6218 311.746C95.1995 311.595 95.7262 311.628 96.3208 311.477C96.5926 311.409 96.8645 311.325 97.1363 311.241V311.089C96.8306 310.785 96.6097 310.381 96.2868 310.094C95.4204 309.352 94.4688 308.627 93.4834 308.021C92.9567 307.683 92.2771 307.464 91.7164 307.178C91.5126 307.076 91.1727 307.026 91.0538 306.857C90.7479 306.486 90.578 305.998 90.3572 305.559C89.8646 304.632 89.3887 303.604 88.964 302.626C88.6583 301.968 88.4713 301.311 88.0975 300.704C86.3475 297.838 84.4446 296.102 81.5223 294.399C80.8936 294.045 80.1461 293.893 79.3475 293.708C78.9229 293.691 78.498 293.657 78.0732 293.64C77.8014 293.522 77.5295 293.202 77.2916 293.05C76.3234 292.443 73.8257 291.128 73.1121 292.865C72.6533 293.961 73.7917 295.039 74.1824 295.596C74.4714 295.984 74.8451 296.422 75.049 296.86C75.168 297.147 75.2018 297.45 75.3208 297.754C75.5927 298.495 75.8475 299.321 76.2043 300.013C76.3913 300.367 76.5951 300.738 76.833 301.058C76.9689 301.243 77.2067 301.328 77.2577 301.631C77.0199 301.968 77.0029 302.474 76.8669 302.896C76.2553 304.801 76.4932 307.161 77.3596 308.56C77.6314 308.981 78.2771 309.909 79.1436 309.555C79.9082 309.251 79.7383 308.29 79.9591 307.447C80.0102 307.245 79.9762 307.11 80.0781 306.975C80.0782 306.992 80.0781 307.009 80.0781 307.009C80.316 307.481 80.5538 307.936 80.7746 308.408C81.3014 309.234 82.2188 310.094 82.9834 310.667C83.3913 310.971 83.714 311.493 84.2237 311.679V311.628H84.1897C84.0877 311.476 83.9349 311.409 83.799 311.291C83.4932 310.988 83.1533 310.617 82.9155 310.28C82.202 309.335 81.5732 308.29 81.0125 307.211C80.7407 306.689 80.5028 306.115 80.282 305.593C80.18 305.39 80.18 305.087 80.0101 304.986C79.7552 305.357 79.3815 305.677 79.1946 306.132C78.8719 306.857 78.8378 307.751 78.7189 308.678C78.651 308.695 78.6849 308.678 78.6508 308.712C78.1072 308.577 77.9203 308.021 77.7164 307.548C77.2067 306.352 77.1217 304.43 77.5635 303.047C77.6825 302.693 78.1922 301.581 77.9883 301.243C77.8864 300.923 77.5465 300.738 77.3596 300.485C77.1388 300.164 76.9009 299.76 76.748 299.406C76.3402 298.462 76.1363 297.417 75.6946 296.472C75.4907 296.034 75.1339 295.579 74.8451 295.174C74.5223 294.719 74.1655 294.399 73.9106 293.859C73.8258 293.674 73.7067 293.37 73.8426 293.168C73.8766 293.033 73.9445 292.983 74.0805 292.949C74.3014 292.763 74.93 293 75.1509 293.101C75.7795 293.353 76.3062 293.59 76.833 293.944C77.0708 294.112 77.3256 294.433 77.6314 294.517H77.9883C78.532 294.635 79.1436 294.551 79.6533 294.702C80.5539 294.989 81.3693 295.41 82.1 295.865C84.3257 297.265 86.1606 299.254 87.4009 301.631C87.6048 302.019 87.6897 302.373 87.8766 302.778C88.2335 303.604 88.6752 304.447 89.032 305.256C89.3887 306.048 89.7285 306.857 90.2382 307.515C90.4932 307.869 91.5125 308.054 91.9712 308.24C92.3111 308.391 92.8378 308.526 93.1436 308.712C93.7212 309.066 94.2989 309.47 94.8426 309.858C95.1146 310.06 95.964 310.482 96.015 310.819H96.015Z" fill="white"/>
<path d="M78.6823 296.169C78.3934 296.169 78.1896 296.203 77.9857 296.253C77.9857 296.253 77.9857 296.27 77.9857 296.287H78.0197C78.1557 296.557 78.3934 296.742 78.5633 296.978C78.6993 297.248 78.8182 297.518 78.9542 297.787C78.9711 297.77 78.9881 297.754 78.9881 297.754C79.2261 297.585 79.3449 297.315 79.3449 296.911C79.2429 296.793 79.226 296.675 79.141 296.557C79.0391 296.388 78.8182 296.304 78.6823 296.169Z" fill="white"/>
</g>
<path d="M154.256 132.2H157.376V146.36H166.16V149H154.256V132.2ZM181.223 146.384V149H168.623V132.2H180.887V134.816H171.743V139.184H179.855V141.752H171.743V146.384H181.223ZM188.109 134.84H182.541V132.2H196.797V134.84H191.229V149H188.109V134.84ZM200.444 131.024C201.004 131.024 201.468 131.208 201.836 131.576C202.204 131.944 202.388 132.416 202.388 132.992C202.388 133.28 202.348 133.56 202.268 133.832C202.204 134.104 202.068 134.512 201.86 135.056L200.612 138.464H198.668L199.628 134.768C199.276 134.64 198.996 134.424 198.788 134.12C198.596 133.8 198.5 133.424 198.5 132.992C198.5 132.416 198.684 131.944 199.052 131.576C199.42 131.208 199.884 131.024 200.444 131.024ZM211.05 149.24C209.754 149.24 208.498 149.056 207.282 148.688C206.082 148.32 205.13 147.832 204.426 147.224L205.506 144.8C206.194 145.344 207.034 145.792 208.026 146.144C209.034 146.48 210.042 146.648 211.05 146.648C212.298 146.648 213.226 146.448 213.834 146.048C214.458 145.648 214.77 145.12 214.77 144.464C214.77 143.984 214.594 143.592 214.242 143.288C213.906 142.968 213.474 142.72 212.946 142.544C212.418 142.368 211.698 142.168 210.786 141.944C209.506 141.64 208.466 141.336 207.666 141.032C206.882 140.728 206.202 140.256 205.626 139.616C205.066 138.96 204.786 138.08 204.786 136.976C204.786 136.048 205.034 135.208 205.53 134.456C206.042 133.688 206.802 133.08 207.81 132.632C208.834 132.184 210.082 131.96 211.554 131.96C212.578 131.96 213.586 132.088 214.578 132.344C215.57 132.6 216.426 132.968 217.146 133.448L216.162 135.872C215.426 135.44 214.658 135.112 213.858 134.888C213.058 134.664 212.282 134.552 211.53 134.552C210.298 134.552 209.378 134.76 208.77 135.176C208.178 135.592 207.882 136.144 207.882 136.832C207.882 137.312 208.05 137.704 208.386 138.008C208.738 138.312 209.178 138.552 209.706 138.728C210.234 138.904 210.954 139.104 211.866 139.328C213.114 139.616 214.138 139.92 214.938 140.24C215.738 140.544 216.418 141.016 216.978 141.656C217.554 142.296 217.842 143.16 217.842 144.248C217.842 145.176 217.586 146.016 217.074 146.768C216.578 147.52 215.818 148.12 214.794 148.568C213.77 149.016 212.522 149.24 211.05 149.24ZM243.001 149L242.977 137.864L237.457 147.08H236.065L230.545 138.008V149H227.569V132.2H230.137L236.809 143.336L243.361 132.2H245.929L245.953 149H243.001ZM261.386 145.112H252.986L251.33 149H248.114L255.674 132.2H258.746L266.33 149H263.066L261.386 145.112ZM260.354 142.664L257.186 135.32L254.042 142.664H260.354ZM274.251 141.968L271.587 144.704V149H268.467V132.2H271.587V140.816L279.891 132.2H283.395L276.339 139.712L283.827 149H280.179L274.251 141.968ZM298.551 146.384V149H285.951V132.2H298.215V134.816H289.071V139.184H297.183V141.752H289.071V146.384H298.551ZM319.558 145.112H311.158L309.502 149H306.286L313.846 132.2H316.918L324.502 149H321.238L319.558 145.112ZM318.526 142.664L315.358 135.32L312.214 142.664H318.526ZM340.184 132.2C341.64 132.2 342.904 132.44 343.976 132.92C345.064 133.4 345.896 134.088 346.472 134.984C347.048 135.88 347.336 136.944 347.336 138.176C347.336 139.392 347.048 140.456 346.472 141.368C345.896 142.264 345.064 142.952 343.976 143.432C342.904 143.912 341.64 144.152 340.184 144.152H336.392V149H333.272V132.2H340.184ZM340.04 141.512C341.4 141.512 342.432 141.224 343.136 140.648C343.84 140.072 344.192 139.248 344.192 138.176C344.192 137.104 343.84 136.28 343.136 135.704C342.432 135.128 341.4 134.84 340.04 134.84H336.392V141.512H340.04ZM350.451 132.2H357.795C359.587 132.2 361.179 132.552 362.571 133.256C363.963 133.944 365.043 134.928 365.811 136.208C366.579 137.472 366.963 138.936 366.963 140.6C366.963 142.264 366.579 143.736 365.811 145.016C365.043 146.28 363.963 147.264 362.571 147.968C361.179 148.656 359.587 149 357.795 149H350.451V132.2ZM357.651 146.36C358.883 146.36 359.963 146.128 360.891 145.664C361.835 145.184 362.555 144.512 363.051 143.648C363.563 142.768 363.819 141.752 363.819 140.6C363.819 139.448 363.563 138.44 363.051 137.576C362.555 136.696 361.835 136.024 360.891 135.56C359.963 135.08 358.883 134.84 357.651 134.84H353.571V146.36H357.651ZM373.399 134.816V139.928H381.511V142.568H373.399V149H370.279V132.2H382.543V134.816H373.399ZM385.123 132.2H388.675L388.075 143.432H385.699L385.123 132.2ZM386.899 149.168C386.339 149.168 385.875 148.992 385.507 148.64C385.139 148.272 384.955 147.824 384.955 147.296C384.955 146.768 385.139 146.328 385.507 145.976C385.875 145.624 386.339 145.448 386.899 145.448C387.443 145.448 387.891 145.624 388.243 145.976C388.611 146.328 388.795 146.768 388.795 147.296C388.795 147.824 388.611 148.272 388.243 148.64C387.891 148.992 387.443 149.168 386.899 149.168Z" fill="white"/>
<g clip-path="url(#clip3_205_2)">
<path d="M257 71.8804C254.177 71.8804 251.88 74.1771 251.88 77.0001C251.88 79.823 254.177 82.1197 257 82.1197C259.823 82.1197 262.12 79.823 262.12 77.0001C262.12 74.1771 259.823 71.8804 257 71.8804Z" fill="white"/>
<path d="M255.961 70.8326H258.039C258.204 70.8326 258.345 70.764 258.427 70.6443C258.509 70.5246 258.522 70.3681 258.462 70.2147L257.319 67.2699C257.227 67.0351 257.08 67.0001 257 67.0001C256.92 67.0001 256.773 67.0351 256.681 67.2698L255.538 70.2147C255.478 70.3681 255.491 70.5246 255.573 70.6443C255.655 70.764 255.796 70.8326 255.961 70.8326Z" fill="white"/>
<path d="M258.039 83.1674H255.961C255.796 83.1674 255.655 83.2361 255.573 83.3558C255.491 83.4755 255.478 83.632 255.538 83.7854L256.681 86.7303C256.773 86.965 256.92 87.0001 257 87.0001C257.08 87.0001 257.227 86.965 257.319 86.7303L258.462 83.7853C258.522 83.6321 258.509 83.4755 258.427 83.3558C258.345 83.2361 258.204 83.1674 258.039 83.1674Z" fill="white"/>
<path d="M251.168 73.2361C251.247 73.4151 251.398 73.5219 251.571 73.5219C251.691 73.5219 251.809 73.4694 251.904 73.374L253.374 71.9041C253.49 71.7878 253.542 71.6393 253.515 71.4967C253.488 71.3541 253.386 71.2343 253.236 71.1681L250.345 69.8944C250.272 69.8623 250.203 69.846 250.141 69.846C250.036 69.846 249.946 69.8922 249.893 69.9729C249.849 70.0409 249.813 70.1607 249.894 70.3451L251.168 73.2361Z" fill="white"/>
<path d="M262.832 80.764C262.753 80.585 262.602 80.4781 262.429 80.4781C262.309 80.4781 262.191 80.5307 262.096 80.6261L260.626 82.096C260.51 82.2124 260.458 82.3609 260.485 82.5034C260.512 82.646 260.613 82.7658 260.764 82.832L263.655 84.1057C263.728 84.1378 263.797 84.1542 263.859 84.1542C263.964 84.1542 264.054 84.1078 264.106 84.0273C264.151 83.9592 264.187 83.8394 264.106 83.6551L262.832 80.764Z" fill="white"/>
<path d="M262.096 73.374C262.191 73.4693 262.309 73.5219 262.429 73.5219C262.602 73.5219 262.753 73.4151 262.832 73.2361L264.106 70.3451C264.187 70.1606 264.151 70.0409 264.107 69.9729C264.054 69.8923 263.964 69.846 263.859 69.846C263.797 69.846 263.728 69.8623 263.655 69.8945L260.764 71.168C260.614 71.2343 260.512 71.3541 260.485 71.4967C260.458 71.6392 260.51 71.7878 260.626 71.904L262.096 73.374Z" fill="white"/>
<path d="M251.904 80.6261C251.809 80.5307 251.691 80.4781 251.571 80.4781C251.398 80.4781 251.247 80.585 251.168 80.764L249.894 83.655C249.813 83.8394 249.849 83.9592 249.893 84.0273C249.946 84.1078 250.036 84.1541 250.141 84.1541C250.203 84.1541 250.272 84.1378 250.345 84.1056L253.236 82.832C253.387 82.7657 253.488 82.6459 253.515 82.5034C253.542 82.3608 253.49 82.2123 253.374 82.096L251.904 80.6261Z" fill="white"/>
<path d="M266.73 76.6814L263.785 75.5378C263.722 75.5131 263.658 75.5006 263.596 75.5006C263.348 75.5006 263.167 75.6941 263.167 75.9607L263.167 78.0395C263.167 78.3061 263.348 78.4996 263.596 78.4996C263.658 78.4996 263.722 78.4871 263.785 78.4625L266.73 77.3187C266.965 77.2275 267 77.08 267 77.0001C267 76.9202 266.965 76.7726 266.73 76.6814Z" fill="white"/>
<path d="M250.404 78.4995C250.653 78.4995 250.833 78.306 250.833 78.0395V75.9606C250.833 75.694 250.653 75.5005 250.404 75.5005C250.342 75.5005 250.278 75.513 250.215 75.5377L247.27 76.6814C247.035 76.7725 247 76.9201 247 77C247 77.0799 247.035 77.2275 247.27 77.3187L250.215 78.4624C250.278 78.487 250.342 78.4995 250.404 78.4995Z" fill="white"/>
</g>
<path d="M66.376 90.504C64.336 90.504 62.356 90.252 60.436 89.748C58.516 89.244 56.956 88.572 55.756 87.732L58.096 82.476C59.224 83.22 60.532 83.82 62.02 84.276C63.508 84.732 64.972 84.96 66.412 84.96C69.148 84.96 70.516 84.276 70.516 82.908C70.516 82.188 70.12 81.66 69.328 81.324C68.56 80.964 67.312 80.592 65.584 80.208C63.688 79.8 62.104 79.368 60.832 78.912C59.56 78.432 58.468 77.676 57.556 76.644C56.644 75.612 56.188 74.22 56.188 72.468C56.188 70.932 56.608 69.552 57.448 68.328C58.288 67.08 59.536 66.096 61.192 65.376C62.872 64.656 64.924 64.296 67.348 64.296C69.004 64.296 70.636 64.488 72.244 64.872C73.852 65.232 75.268 65.772 76.492 66.492L74.296 71.784C71.896 70.488 69.568 69.84 67.312 69.84C65.896 69.84 64.864 70.056 64.216 70.488C63.568 70.896 63.244 71.436 63.244 72.108C63.244 72.78 63.628 73.284 64.396 73.62C65.164 73.956 66.4 74.304 68.104 74.664C70.024 75.072 71.608 75.516 72.856 75.996C74.128 76.452 75.22 77.196 76.132 78.228C77.068 79.236 77.536 80.616 77.536 82.368C77.536 83.88 77.116 85.248 76.276 86.472C75.436 87.696 74.176 88.68 72.496 89.424C70.816 90.144 68.776 90.504 66.376 90.504ZM108.837 92.916C107.997 93.948 106.965 94.728 105.741 95.256C104.541 95.808 103.221 96.084 101.781 96.084C100.389 96.084 99.1286 95.904 98.0006 95.544C96.8726 95.184 95.7326 94.584 94.5806 93.744C93.4526 92.928 92.1806 91.776 90.7646 90.288C88.5806 89.928 86.6366 89.148 84.9326 87.948C83.2286 86.748 81.8966 85.236 80.9366 83.412C80.0006 81.588 79.5326 79.584 79.5326 77.4C79.5326 74.904 80.1326 72.66 81.3326 70.668C82.5566 68.676 84.2246 67.116 86.3366 65.988C88.4726 64.86 90.8726 64.296 93.5366 64.296C96.2006 64.296 98.5886 64.86 100.701 65.988C102.837 67.116 104.505 68.676 105.705 70.668C106.929 72.66 107.541 74.904 107.541 77.4C107.541 80.232 106.761 82.74 105.201 84.924C103.665 87.084 101.589 88.632 98.9726 89.568C99.4526 90.096 99.9206 90.468 100.377 90.684C100.857 90.9 101.373 91.008 101.925 91.008C103.341 91.008 104.613 90.42 105.741 89.244L108.837 92.916ZM86.7326 77.4C86.7326 78.816 87.0326 80.076 87.6326 81.18C88.2326 82.26 89.0486 83.1 90.0806 83.7C91.1126 84.3 92.2646 84.6 93.5366 84.6C94.8086 84.6 95.9606 84.3 96.9926 83.7C98.0246 83.1 98.8406 82.26 99.4406 81.18C100.041 80.076 100.341 78.816 100.341 77.4C100.341 75.984 100.041 74.736 99.4406 73.656C98.8406 72.552 98.0246 71.7 96.9926 71.1C95.9606 70.5 94.8086 70.2 93.5366 70.2C92.2646 70.2 91.1126 70.5 90.0806 71.1C89.0486 71.7 88.2326 72.552 87.6326 73.656C87.0326 74.736 86.7326 75.984 86.7326 77.4ZM111.274 64.8H118.402V84.348H130.426V90H111.274V64.8ZM166.317 64.8C168.597 64.8 170.577 65.184 172.257 65.952C173.937 66.696 175.233 67.776 176.145 69.192C177.057 70.584 177.513 72.228 177.513 74.124C177.513 76.02 177.057 77.664 176.145 79.056C175.233 80.448 173.937 81.528 172.257 82.296C170.577 83.04 168.597 83.412 166.317 83.412H161.925V90H154.797V64.8H166.317ZM165.885 77.796C167.349 77.796 168.453 77.484 169.197 76.86C169.941 76.212 170.313 75.3 170.313 74.124C170.313 72.948 169.941 72.036 169.197 71.388C168.453 70.74 167.349 70.416 165.885 70.416H161.925V77.796H165.885ZM180.989 64.8H192.905C195.665 64.8 198.113 65.316 200.249 66.348C202.385 67.38 204.041 68.844 205.217 70.74C206.393 72.636 206.981 74.856 206.981 77.4C206.981 79.944 206.393 82.164 205.217 84.06C204.041 85.956 202.385 87.42 200.249 88.452C198.113 89.484 195.665 90 192.905 90H180.989V64.8ZM192.617 84.312C194.777 84.312 196.505 83.7 197.801 82.476C199.121 81.252 199.781 79.56 199.781 77.4C199.781 75.24 199.121 73.548 197.801 72.324C196.505 71.1 194.777 70.488 192.617 70.488H188.117V84.312H192.617ZM217.859 70.308V75.852H228.983V81.36H217.859V90H210.731V64.8H230.495V70.308H217.859Z" fill="white"/>
<path d="M151.427 84.348V90H131.807V85.536L141.239 76.716C142.151 75.852 142.763 75.12 143.075 74.52C143.387 73.896 143.543 73.272 143.543 72.648C143.543 71.832 143.267 71.196 142.715 70.74C142.163 70.284 141.359 70.056 140.303 70.056C139.367 70.056 138.503 70.272 137.711 70.704C136.943 71.112 136.307 71.712 135.803 72.504L130.511 69.552C131.495 67.92 132.875 66.636 134.651 65.7C136.427 64.764 138.527 64.296 140.951 64.296C142.871 64.296 144.563 64.608 146.027 65.232C147.515 65.856 148.667 66.756 149.483 67.932C150.323 69.084 150.743 70.428 150.743 71.964C150.743 73.332 150.443 74.628 149.843 75.852C149.267 77.052 148.139 78.42 146.459 79.956L141.707 84.348H151.427Z" fill="#2D9CFC"/>
</g>
<defs>
<filter id="filter0_d_205_2" x="0" y="0" width="1300" height="740" filterUnits="userSpaceOnUse" color-interpolation-filters="sRGB">
<feFlood flood-opacity="0" result="BackgroundImageFix"/>
<feColorMatrix in="SourceAlpha" type="matrix" values="0 0 0 0 0 0 0 0 0 0 0 0 0 0 0 0 0 0 127 0" result="hardAlpha"/>
<feMorphology radius="2" operator="dilate" in="SourceAlpha" result="effect1_dropShadow_205_2"/>
<feOffset dx="5" dy="5"/>
<feGaussianBlur stdDeviation="4"/>
<feColorMatrix type="matrix" values="0 0 0 0 0.645833 0 0 0 0 0.645833 0 0 0 0 0.645833 0 0 0 0.23 0"/>
<feBlend mode="normal" in2="BackgroundImageFix" result="effect1_dropShadow_205_2"/>
<feBlend mode="normal" in="SourceGraphic" in2="effect1_dropShadow_205_2" result="shape"/>
</filter>
<clipPath id="clip0_205_2">
<rect width="18" height="18" fill="white" transform="translate(76 369)"/>
</clipPath>
<clipPath id="clip1_205_2">
<rect width="16" height="16" fill="white" transform="translate(77 335)"/>
</clipPath>
<clipPath id="clip2_205_2">
<rect width="25" height="24.4186" fill="white" transform="translate(73 292)"/>
</clipPath>
<clipPath id="clip3_205_2">
<rect width="20" height="20" fill="white" transform="translate(247 67)"/>
</clipPath>
</defs>
</svg>

